<svg xmlns="http://www.w3.org/2000/svg" viewBox="0 0 90 90"><defs><style>.cls-1{fill:none;stroke:#263238;stroke-miterlimit:10;stroke-width:6px;}</style></defs><title>Asset 13</title><g id="Layer_2" data-name="Layer 2"><g id="Layer_1-2" data-name="Layer 1"><path class="cls-1" d="M82.75,45.14v0A37.54,37.54,0,0,1,45.2,82.71h-.05A37.53,37.53,0,0,1,7.65,45.19v0A37.56,37.56,0,0,1,45.15,7.65h.05A37.55,37.55,0,0,1,82.75,45.14Z" transform="translate(-0.25 -0.25)"/><polyline class="cls-1" points="44.9 0 44.9 7.41 44.9 30 44.9 44.89 44.9 44.97 44.9 59.98 44.9 82.46 44.9 90"/><polyline class="cls-1" points="0 44.89 7.4 44.89 30 44.89 44.9 44.89 45.02 44.89 60 44.89 82.5 44.89 90 44.89"/><path class="cls-1" d="M45.15,60.23a15,15,0,0,1-14.9-15v-.1a15,15,0,0,1,14.9-14.89h.12a15,15,0,0,1,15,14.89v.1a15,15,0,0,1-15,15Z" transform="translate(-0.25 -0.25)"/><polyline class="cls-1" points="45.02 30 45.02 44.89 45.02 44.97 45.02 59.95"/><polyline class="cls-1" points="30 44.97 44.9 44.97 45.02 44.97 59.96 44.97"/></g></g></svg>