<svg xmlns="http://www.w3.org/2000/svg" viewBox="0 0 90 90"><defs><style>.cls-1{fill:#1a2327;}.cls-2{fill:none;stroke:#1a2327;stroke-miterlimit:10;stroke-width:5px;}</style></defs><title>Asset 12</title><g id="Layer_2" data-name="Layer 2"><g id="Layer_1-2" data-name="Layer 1"><path class="cls-1" d="M45.26,60.25a15,15,0,0,1-15-15v-.1h15v.12h.08v15Z" transform="translate(-0.25 -0.25)"/><path class="cls-1" d="M60.25,45.15H45.36V30.25A15,15,0,0,1,60.25,45.15Z" transform="translate(-0.25 -0.25)"/><path class="cls-2" d="M45.36,82.75h0A37.54,37.54,0,0,1,7.79,45.2v-.05A37.53,37.53,0,0,1,45.31,7.65h0a37.56,37.56,0,0,1,37.49,37.5v.05A37.55,37.55,0,0,1,45.36,82.75Z" transform="translate(-0.25 -0.25)"/><polyline class="cls-2" points="90 44.9 82.6 44.9 60 44.9 45.12 44.9 45.03 44.9 30.02 44.9 7.54 44.9 0 44.9"/><polyline class="cls-2" points="45.12 0 45.12 7.4 45.12 30 45.12 44.9 45.12 45.02 45.12 60 45.12 82.5 45.12 90"/><path class="cls-2" d="M30.27,45.15a15,15,0,0,1,15-14.9h.1a15,15,0,0,1,14.89,14.9v.12a15,15,0,0,1-14.89,15h-.1a15,15,0,0,1-15-15Z" transform="translate(-0.25 -0.25)"/><polyline class="cls-2" points="60 45.02 45.12 45.02 45.03 45.02 30.06 45.02"/><polyline class="cls-2" points="45.03 30 45.03 44.9 45.03 45.02 45.03 59.96"/></g></g></svg>