<svg id="agar" xmlns="http://www.w3.org/2000/svg" viewBox="0 0 498.85 140.33"><defs><style>.cls-1{fill:none;stroke:#231f20;stroke-miterlimit:10;stroke-width:6px;}</style></defs><title>agar-1b</title><g id="r"><path class="cls-1" d="M477.39,308.86c38.05,7.61,33.37-45.08,51.8-51" transform="translate(-41.54 -180.24)"/><path class="cls-1" d="M529.19,257.89c20-5.73.42-68.39-26.62-73.07-21.9-3.78-49.53,15-55.63,50.43-5.94,34.58,7.11,68.54,30.09,73.51h0" transform="translate(-41.54 -180.24)"/></g><g id="g"><path class="cls-1" d="M224.85,314.45c-42.11-11.93-3.71-45.07-28.16-72.41-31.45-37.68,33.24-67.6,68.1-53,21.39,9,40,51.66,26.1,84.87-13.53,32.26-40.59,45.93-65.8,40.55" transform="translate(-41.54 -180.24)"/></g><g id="a"><path class="cls-1" d="M119.18,307.58" transform="translate(-41.54 -180.24)"/><path class="cls-1" d="M119.18,307.58c10.81-.12,33.69,5.13,33.69,5.13,35.09,2.81,49.61-26,32.67-59.82L153.4,202c-21.76-26-54.93-25.15-73.56,3.5L49.06,266.12c-12.31,27.47,1.18,58.66,32.71,50,0,0,26.07-8,36.39-8.49h.48" transform="translate(-41.54 -180.24)"/></g><g id="a-2" data-name="a"><path class="cls-1" d="M371.63,303.48" transform="translate(-41.54 -180.24)"/><path class="cls-1" d="M371.63,303.48c-10.07.37-31.16,6.41-31.16,6.41-32.55,4.25-47.33-22.68-33-55.71l27.72-50.07c19.14-25.81,50.06-26.49,68.65,0l31.31,56.57c12.66,25.7,1.45,56.11-28.29,49.22,0,0-24.63-6.48-34.26-6.49h-.45" transform="translate(-41.54 -180.24)"/></g></svg>